<?xml version="1.0" standalone="no"?>
<!DOCTYPE svg PUBLIC "-//W3C//DTD SVG 20010904//EN"
 "http://www.w3.org/TR/2001/REC-SVG-20010904/DTD/svg10.dtd">
<svg version="1.0" xmlns="http://www.w3.org/2000/svg"
 width="300.000000pt" height="135.000000pt" viewBox="0 0 300.000000 135.000000"
 preserveAspectRatio="xMidYMid meet">
<metadata>
Created by potrace 1.10, written by Peter Selinger 2001-2011
</metadata>
<g transform="translate(0.000000,135.000000) scale(0.050000,-0.050000)"
fill="#000000" stroke="none">
<path d="M4122 2622 c-54 -54 -117 -181 -175 -349 -25 -76 -99 -221 -164 -321
-129 -198 -209 -351 -292 -552 -29 -71 -66 -157 -80 -190 -40 -89 -131 -387
-131 -428 0 -144 -200 102 -331 406 -152 354 -199 365 -525 114 -301 -232
-323 -240 -428 -152 -88 74 -152 64 -319 -50 -238 -162 -329 -131 -352 119
-16 184 -62 166 -365 -140 -433 -438 -660 -352 -660 249 0 673 691 1192 883
662 28 -78 90 -101 66 -25 -108 345 -436 367 -750 51 -268 -270 -340 -763
-163 -1115 123 -245 294 -206 656 150 261 257 262 258 278 154 48 -292 159
-326 433 -133 145 102 179 107 263 36 103 -87 192 -63 402 106 307 247 390
267 462 112 148 -317 217 -445 273 -506 155 -169 144 -135 98 -311 -80 -305
-20 -586 97 -461 81 86 87 396 11 555 -58 123 251 964 479 1299 78 114 77 115
36 -72 -96 -432 68 -636 353 -440 110 75 171 86 232 39 79 -60 186 -37 410 88
295 165 284 164 328 38 90 -260 365 -435 489 -311 37 37 28 60 -15 37 -155
-84 -353 58 -423 301 -40 141 -109 147 -302 26 -256 -162 -371 -194 -456 -128
-77 60 -140 49 -280 -50 -189 -133 -262 -114 -298 81 -46 248 27 548 185 755
183 240 234 374 149 390 -18 4 -52 -12 -74 -34z m53 -87 c-25 -73 -176 -300
-190 -286 -13 12 110 272 149 316 49 54 66 42 41 -30z m-861 -2185 c10 -131
-32 -318 -65 -286 -42 43 -39 431 4 500 22 36 49 -59 61 -214z"/>
</g>
</svg>
