<?xml version="1.0" encoding="UTF-8" standalone="no"?>
<!DOCTYPE svg PUBLIC "-//W3C//DTD SVG 1.1//EN" "http://www.w3.org/Graphics/SVG/1.1/DTD/svg11.dtd">
<svg width="100%" height="100%" viewBox="0 0 78 78" version="1.1" xmlns="http://www.w3.org/2000/svg" xmlns:xlink="http://www.w3.org/1999/xlink" xml:space="preserve" xmlns:serif="http://www.serif.com/" style="fill-rule:evenodd;clip-rule:evenodd;stroke-linejoin:round;stroke-miterlimit:2;">
    <g>
        <path d="M20.8,53.8L26.9,58.2L24.6,65.3L17.1,65.3L14.8,58.2L20.8,53.8M20.8,51.4L12.4,57.5L15.6,67.4L26,67.4L29.2,57.5L20.8,51.4Z" style="fill:rgb(34,40,49);fill-rule:nonzero;"/>
    </g>
    <g>
        <path d="M41.5,53.8L47.6,58.2L45.3,65.3L37.8,65.3L35.5,58.2L41.5,53.8M41.5,51.4L33.1,57.5L36.3,67.4L46.7,67.4L49.9,57.5L41.5,51.4Z" style="fill:rgb(34,40,49);fill-rule:nonzero;"/>
    </g>
    <g>
        <path d="M15.6,26.4L12.4,16.5L20.8,10.4L29.2,16.5L26,26.4L15.6,26.4Z" style="fill:rgb(0,162,157);fill-rule:nonzero;"/>
    </g>
    <g>
        <path d="M36.3,26.4L33.1,16.5L41.5,10.4L49.9,16.5L46.7,26.4L36.3,26.4Z" style="fill:rgb(0,162,157);fill-rule:nonzero;"/>
    </g>
</svg>
