<?xml version="1.0" encoding="utf-8"?>
<!-- Generator: Adobe Illustrator 18.0.0, SVG Export Plug-In . SVG Version: 6.00 Build 0)  -->
<!DOCTYPE svg PUBLIC "-//W3C//DTD SVG 1.1//EN" "http://www.w3.org/Graphics/SVG/1.1/DTD/svg11.dtd">
<svg version="1.1" id="Layer_1" xmlns="http://www.w3.org/2000/svg" xmlns:xlink="http://www.w3.org/1999/xlink" x="0px" y="0px"
	 viewBox="0 0 380 380" enable-background="new 0 0 380 380" xml:space="preserve">
<g>
	<g>
		<rect x="183.8" y="45" fill="#00A29D" width="5" height="290.7"/>
	</g>
	<g>
		<rect x="230.3" y="45" fill="#00A29D" width="5" height="290.7"/>
	</g>
	<g>
		
			<rect x="-10.1" y="204" transform="matrix(0.703 0.7112 -0.7112 0.703 197.9544 -60.993)" fill="#00A29D" width="364.2" height="5"/>
	</g>
	<g>
		
			<rect x="23.9" y="172" transform="matrix(0.703 0.7112 -0.7112 0.703 185.2944 -94.6791)" fill="#00A29D" width="364.2" height="5"/>
	</g>
</g>
<g>
	<defs>
		<rect id="SVGID_1_" x="183.9" y="397.3" width="73.4" height="73.5"/>
	</defs>
	<clipPath id="SVGID_2_">
		<use xlink:href="#SVGID_1_"  overflow="visible"/>
	</clipPath>
	<g clip-path="url(#SVGID_2_)">
		<g>
			<rect x="146.8" y="220.3" fill="#00A29D" width="5" height="290.7"/>
		</g>
		<g>
			<rect x="193.3" y="220.3" fill="#00A29D" width="5" height="290.7"/>
		</g>
		<g>
			
				<rect x="-47.1" y="379.3" transform="matrix(0.703 0.7112 -0.7112 0.703 311.6642 17.4005)" fill="#00A29D" width="364.2" height="5"/>
		</g>
		<g>
			
				<rect x="-13.1" y="347.3" transform="matrix(0.703 0.7112 -0.7112 0.703 299.0042 -16.2857)" fill="#00A29D" width="364.2" height="5"/>
		</g>
	</g>
</g>
<g>
	<defs>
		<rect id="SVGID_3_" x="454.5" y="397.3" width="73.4" height="73.5"/>
	</defs>
	<clipPath id="SVGID_4_">
		<use xlink:href="#SVGID_3_"  overflow="visible"/>
	</clipPath>
	<g clip-path="url(#SVGID_4_)">
		<g>
			
				<rect x="223.6" y="379.3" transform="matrix(0.703 0.7112 -0.7112 0.703 392.0591 -175.1017)" fill="#00A29D" width="364.2" height="5"/>
		</g>
		<g>
			
				<rect x="257.6" y="347.3" transform="matrix(0.703 0.7112 -0.7112 0.703 379.3991 -208.7879)" fill="#00A29D" width="364.2" height="5"/>
		</g>
	</g>
</g>
<g>
	<defs>
		<rect id="SVGID_5_" x="364.5" y="397.3" width="73.4" height="73.5"/>
	</defs>
	<clipPath id="SVGID_6_">
		<use xlink:href="#SVGID_5_"  overflow="visible"/>
	</clipPath>
	<g clip-path="url(#SVGID_6_)">
		<g>
			<rect x="327.5" y="220.3" fill="#00A29D" width="5" height="290.7"/>
		</g>
		<g>
			
				<rect x="133.6" y="379.3" transform="matrix(0.703 0.7112 -0.7112 0.703 365.3268 -111.0924)" fill="#00A29D" width="364.2" height="5"/>
		</g>
		<g>
			
				<rect x="167.6" y="347.3" transform="matrix(0.703 0.7112 -0.7112 0.703 352.6668 -144.7785)" fill="#00A29D" width="364.2" height="5"/>
		</g>
	</g>
</g>
<g>
	<defs>
		<rect id="SVGID_7_" x="273.2" y="397.3" width="73.5" height="73.4"/>
	</defs>
	<clipPath id="SVGID_8_">
		<use xlink:href="#SVGID_7_"  overflow="visible"/>
	</clipPath>
	<g clip-path="url(#SVGID_8_)">
		<g>
			
				<rect x="43.6" y="483.1" transform="matrix(0.7112 -0.703 0.703 0.7112 -276.1947 298.9046)" fill="#00A29D" width="364.2" height="5"/>
		</g>
	</g>
</g>
<g>
	<defs>
		<rect id="SVGID_9_" x="93.4" y="397.4" width="73.3" height="73.3"/>
	</defs>
	<clipPath id="SVGID_10_">
		<use xlink:href="#SVGID_9_"  overflow="visible"/>
	</clipPath>
	<g clip-path="url(#SVGID_10_)">
		<g>
			<rect x="56.3" y="220.3" fill="#00A29D" width="5" height="290.7"/>
		</g>
		<g>
			<rect x="149.8" y="220.3" fill="#00A29D" width="5" height="290.7"/>
		</g>
		<g>
			
				<rect x="-137.6" y="379.3" transform="matrix(0.703 0.7112 -0.7112 0.703 284.7834 81.7654)" fill="#00A29D" width="364.2" height="5"/>
		</g>
		<g>
			
				<rect x="-103.6" y="347.3" transform="matrix(0.703 0.7112 -0.7112 0.703 272.1234 48.0793)" fill="#00A29D" width="364.2" height="5"/>
		</g>
	</g>
</g>
<g>
	<defs>
		<rect id="SVGID_11_" x="2.7" y="396.9" width="74.3" height="74.3"/>
	</defs>
	<clipPath id="SVGID_12_">
		<use xlink:href="#SVGID_11_"  overflow="visible"/>
	</clipPath>
	<g clip-path="url(#SVGID_12_)">
		<g>
			
				<rect x="-226.4" y="483.1" transform="matrix(0.7112 -0.703 0.703 0.7112 -354.1666 109.1015)" fill="#00A29D" width="364.2" height="5"/>
		</g>
	</g>
</g>
<g>
	<g>
		<rect x="44.9" y="44.9" fill="none" stroke="#222831" stroke-width="5" stroke-miterlimit="10" width="290.2" height="290.2"/>
		<g>
			<g>
				<rect x="221.1" y="222.2" fill="#FFFFFF" width="72.9" height="73"/>
				<g>
					<path fill="#222831" d="M291.5,224.7v68h-67.9v-68H291.5 M296.5,219.7h-77.9v78h77.9V219.7L296.5,219.7z"/>
				</g>
			</g>
			<g>
				<path fill="#00A29D" d="M252.3,270.2c0-1.8,0.1-3.3,0.3-4.7c0.2-1.3,0.6-2.5,1.1-3.6c0.5-1.1,1.1-2.1,1.9-3.1
					c0.8-1,1.7-2,2.9-3.1c0.9-0.8,1.7-1.6,2.4-2.4c0.7-0.7,1.4-1.5,2-2.3c0.6-0.8,1-1.6,1.3-2.5c0.3-0.9,0.5-1.9,0.5-2.9
					c0-2.4-0.6-4.2-1.8-5.4c-1.2-1.2-2.9-1.9-5.1-1.9c-0.9,0-1.8,0.1-2.6,0.4s-1.6,0.7-2.3,1.2c-0.7,0.6-1.2,1.3-1.6,2.1
					c-0.4,0.9-0.6,1.9-0.6,3.1h-9.2c0-2.4,0.5-4.4,1.3-6.2c0.8-1.8,2-3.3,3.5-4.5c1.5-1.2,3.2-2.1,5.2-2.8c2-0.6,4.1-0.9,6.4-0.9
					c2.5,0,4.8,0.3,6.8,1s3.7,1.6,5,2.9c1.4,1.3,2.4,2.8,3.1,4.6s1.1,3.9,1.1,6.1c0,1.7-0.3,3.2-0.8,4.6s-1.2,2.8-2.1,4
					c-0.9,1.3-1.9,2.5-3,3.6c-1.1,1.2-2.3,2.3-3.5,3.4c-1.4,1.3-2.3,2.6-2.8,4.1c-0.5,1.5-0.7,3.2-0.7,5.1H252.3z M251.7,281.9
					c0-0.7,0.1-1.4,0.3-2c0.2-0.6,0.6-1.1,1-1.6s1-0.8,1.6-1.1c0.6-0.3,1.4-0.4,2.2-0.4s1.6,0.1,2.2,0.4c0.6,0.3,1.2,0.6,1.6,1.1
					s0.8,1,1,1.6c0.2,0.6,0.4,1.3,0.4,2c0,1.4-0.5,2.5-1.4,3.5c-0.9,0.9-2.2,1.4-3.8,1.4s-2.9-0.5-3.8-1.4
					C252.1,284.4,251.7,283.3,251.7,281.9z"/>
			</g>
		</g>
	</g>
</g>
</svg>
