<svg width="477" height="315" viewBox="0 0 477 315" fill="none" xmlns="http://www.w3.org/2000/svg"><path fill-rule="evenodd" clip-rule="evenodd" d="M409.275 314.32c3.282.467 6.6-.504 9.111-2.663l55.637-47.854a7.32 7.32 0 002.541-5.545v-12.793l-61.757 53.817a.222.222 0 01-.37-.164c0-.109-.079-.2-.182-.218l-266.943-39.131v10.888a7.31 7.31 0 006.278 7.237l255.685 36.426z" fill="#E2B47D"/><path fill-rule="evenodd" clip-rule="evenodd" d="M262.024 293.435a11.49 11.49 0 009.111-2.663l55.636-47.854a7.322 7.322 0 002.548-5.544v-12.793l-61.763 53.816a.222.222 0 01-.37-.163c0-.11-.079-.2-.188-.219L.061 238.884v10.888a7.31 7.31 0 006.278 7.237l255.685 36.426z" fill="#E2B47D"/><path fill-rule="evenodd" clip-rule="evenodd" d="M409.281 300.939l-257.989-36.723c-3.992-.571-5.46-5.581-2.403-8.214l56.553-48.703a11.504 11.504 0 019.117-2.669l257.984 36.729c3.997.57 5.465 5.581 2.408 8.214l-56.559 48.697a11.469 11.469 0 01-9.111 2.669z" fill="#F7DEB5"/><path fill-rule="evenodd" clip-rule="evenodd" d="M262.03 280.053L4.04 243.324c-3.997-.57-5.46-5.575-2.402-8.213l56.553-48.698a11.483 11.483 0 019.117-2.669l257.984 36.729c3.997.571 5.465 5.581 2.402 8.214l-56.553 48.697a11.465 11.465 0 01-9.111 2.669z" fill="#F7DEB5"/><path fill-rule="evenodd" clip-rule="evenodd" d="M457.335 110.014a4.179 4.179 0 014.174 4.179v132.632a4.179 4.179 0 01-4.174 4.179h-3.13a4.179 4.179 0 01-4.179-4.179V114.193a4.179 4.179 0 014.179-4.179h3.13z" fill="#BA9262"/><path fill-rule="evenodd" clip-rule="evenodd" d="M72.937 57.398a4.18 4.18 0 014.18 4.18v132.625a4.18 4.18 0 01-4.18 4.179h-3.136a4.174 4.174 0 01-4.173-4.179V61.577a4.175 4.175 0 014.173-4.18h3.136z" fill="#BA9262"/><path fill-rule="evenodd" clip-rule="evenodd" d="M410.735 150.637a4.18 4.18 0 014.18 4.179v132.626a4.175 4.175 0 01-4.18 4.179h-3.13a4.174 4.174 0 01-4.173-4.179V154.816a4.178 4.178 0 014.173-4.179h3.13zM24.603 95.285a4.18 4.18 0 014.18 4.18v132.631a4.174 4.174 0 01-4.18 4.173h-3.13a4.178 4.178 0 01-4.18-4.173V99.465a4.183 4.183 0 014.18-4.18h3.13z" fill="#BA9262"/><path fill-rule="evenodd" clip-rule="evenodd" d="M409.275 177.514c3.282.468 6.6-.503 9.111-2.662l55.637-47.855a7.319 7.319 0 002.541-5.544V108.66l-61.757 53.823c-.145.121-.37.018-.37-.17 0-.109-.079-.2-.182-.218l-266.943-39.131v10.888a7.31 7.31 0 006.278 7.237l255.685 36.425z" fill="#E2B47D"/><path fill-rule="evenodd" clip-rule="evenodd" d="M262.024 156.63a11.486 11.486 0 009.111-2.663l55.636-47.86a7.31 7.31 0 002.548-5.538V87.77l-61.763 53.823c-.146.121-.37.024-.37-.164a.217.217 0 00-.188-.218L.061 102.073v10.889a7.305 7.305 0 006.278 7.236l255.685 36.432z" fill="#E2B47D"/><path fill-rule="evenodd" clip-rule="evenodd" d="M409.281 164.134l-257.989-36.729c-3.992-.564-5.46-5.575-2.403-8.213l56.553-48.698a11.502 11.502 0 019.117-2.669l257.984 36.73c3.997.57 5.465 5.58 2.408 8.213l-56.559 48.697a11.465 11.465 0 01-9.111 2.669z" fill="#F7DEB5"/><path fill-rule="evenodd" clip-rule="evenodd" d="M262.03 143.242L4.04 106.519c-3.997-.57-5.46-5.581-2.402-8.213l56.553-48.703a11.5 11.5 0 019.117-2.663l257.984 36.723c3.997.57 5.465 5.58 2.402 8.213l-56.553 48.703a11.483 11.483 0 01-9.111 2.663z" fill="#F7DEB5"/><path d="M72.636 55.48V25.557c0-1.369-1.59-2.123-2.65-1.256l-9.546 7.81a15.416 15.416 0 00-5.654 11.932v22.224c0 3.397 3.51 5.657 6.602 4.252l2.211-1.005a15.416 15.416 0 009.037-14.034z" fill="#723110"/><path d="M69.983 32.883l6.838-5.888a36.512 36.512 0 0128.847-8.498l29.48 4.095a14.605 14.605 0 0112.596 14.466v37.517a17.85 17.85 0 01-6.203 13.526l-16.913 14.564a17.848 17.848 0 01-14.062 4.16l-29.402-4.013c-12.06-1.646-21.049-11.947-21.049-24.118V54.402a28.398 28.398 0 019.868-21.519z" fill="#C2541C"/><path d="M119.774 27.113c.332-1.798 7.842-17.94 0-15.749" stroke="#723110" stroke-width="8.006" stroke-linecap="round" stroke-linejoin="round"/><path d="M66.881 35.553l11.607-9.994a31.643 31.643 0 0125.001-7.364l31.807 4.417c4.841.673 6.628 6.74 2.924 9.93l-13.765 11.854a17.04 17.04 0 00-5.921 12.911v34.764c0 8.373-7.398 14.814-15.691 13.663l-25.934-3.602c-9.627-1.337-16.794-9.569-16.794-19.288V50.31c0-5.67 2.47-11.057 6.766-14.757z" fill="#F97F36"/><path d="M73.2 63.464l.715.092a6.233 6.233 0 015.437 6.182 5.194 5.194 0 01-5.856 5.151l-.715-.092a6.233 6.233 0 01-5.437-6.182 5.194 5.194 0 015.857-5.151z" fill="#2F2C2C"/><ellipse rx="2.639" ry="1.793" transform="matrix(-0.851191 0.524856 0.524856 0.851191 71.5451 67.4696)" fill="#F8F6F3"/><path d="M101.887 67.466l.714.092a6.233 6.233 0 015.438 6.182 5.194 5.194 0 01-5.857 5.151l-.714-.091a6.233 6.233 0 01-5.437-6.182 5.194 5.194 0 015.856-5.152z" fill="#2F2C2C"/><ellipse rx="2.639" ry="1.793" transform="matrix(-0.851191 0.524856 0.524856 0.851191 100.232 71.472)" fill="#F8F6F3"/><path d="M120.173 44.667l-7.724-1.103c-2.846-.407-3.879-3.982-1.689-5.844l6.962-5.917a10.672 10.672 0 018.336-2.445l8.755 1.178a10.675 10.675 0 019.251 10.578v26.303a18.661 18.661 0 01-6.247 13.932l-3.315 2.954c-2.58 2.3-6.666.468-6.666-2.988V53.503a8.925 8.925 0 00-7.663-8.836z" fill="#723110"/><path d="M84.934 22.63l-7.626-.954a6.49 6.49 0 00-4.732 1.273l-11.887 9.034c-1.083.823-.734 2.533.584 2.866l8.97 2.264a4.868 4.868 0 004.214-.904l11.687-9.256c1.691-1.34.932-4.056-1.21-4.323z" fill="#593B1F"/><path d="M80.397 93.31v-.903a2.79 2.79 0 013.148-2.767l3.878.502a3.11 3.11 0 012.71 3.084v1.395c0 1.731-.768 3.374-2.099 4.483a3.776 3.776 0 01-5.202-.351l-.554-.606a7.165 7.165 0 01-1.88-4.838z" fill="#C90A0A"/><path d="M76.906 79.767l16.803 2.323a8.875 8.875 0 017.659 8.791c0 4.124-3.685 7.272-7.758 6.627l-1.599-.252a8.97 8.97 0 01-6.938-5.557.434.434 0 00-.8-.013l-.318.727a4.833 4.833 0 01-5.14 2.847l-2.054-.305a8.696 8.696 0 01-7.415-8.601c0-4.035 3.563-7.14 7.56-6.587z" fill="#F8E6B9"/><path d="M78.018 83.175V81.18a3.336 3.336 0 013.761-3.309l6.09.783a4.003 4.003 0 013.492 3.97v1.823c0 1.096-.883 1.989-1.98 2.001l-1.356.015-1.262 2.708c-.247.53-.81.838-1.39.759l-1.218-.167a2.001 2.001 0 01-1.577-1.214l-1.224-2.944-1.853-.497a2.001 2.001 0 01-1.483-1.933z" fill="#2F2C2C"/><path d="M81.92 79.063l2.734.363c.784.105 1.37.773 1.37 1.564a2.103 2.103 0 01-2.38 2.085l-3.11-.413a1.361 1.361 0 01-1.182-1.35 2.27 2.27 0 012.569-2.249z" fill="#656365"/><path d="M86.957 22.869l-6.17-1.049c-4.249-.722-8.601.46-11.901 3.233l-8.68 7.294a1.623 1.623 0 00-.096 2.397l.45.443c.768.76 1.77 1.242 2.843 1.37l9.868 1.178a9.34 9.34 0 007.139-2.143l8.143-6.888c2.166-1.832 1.201-5.36-1.596-5.835z" fill="#723110"/><path d="M112.042 51.121l-46.249-6.423" stroke="#F98E4D" stroke-width="3.245" stroke-linecap="round" stroke-linejoin="round"/><path d="M332.636 97.48V67.556c0-1.369-1.591-2.123-2.65-1.256l-9.546 7.81a15.415 15.415 0 00-5.654 11.932v22.225c0 3.396 3.51 5.656 6.602 4.251l2.211-1.005a15.416 15.416 0 009.037-14.034z" fill="#723110"/><path d="M329.983 74.883l6.838-5.888a36.51 36.51 0 0128.847-8.498l29.48 4.095a14.605 14.605 0 0112.596 14.466v37.517a17.85 17.85 0 01-6.203 13.526l-16.913 14.564a17.848 17.848 0 01-14.062 4.16l-29.402-4.013c-12.059-1.646-21.049-11.947-21.049-24.118V96.402a28.398 28.398 0 019.868-21.519z" fill="#C2541C"/><path d="M379.774 69.113c.332-1.798 7.842-17.94 0-15.749" stroke="#723110" stroke-width="8.006" stroke-linecap="round" stroke-linejoin="round"/><path d="M326.881 77.553l11.607-9.994a31.643 31.643 0 0125.001-7.364l31.807 4.417c4.841.673 6.628 6.74 2.924 9.93l-13.765 11.854a17.04 17.04 0 00-5.921 12.911v34.764c0 8.373-7.398 14.814-15.691 13.663l-25.934-3.602c-9.627-1.337-16.794-9.569-16.794-19.288V92.31c0-5.67 2.471-11.057 6.766-14.757z" fill="#F97F36"/><path d="M333.201 105.464l.714.092a6.233 6.233 0 015.437 6.182 5.193 5.193 0 01-5.856 5.151l-.714-.092a6.233 6.233 0 01-5.438-6.182 5.194 5.194 0 015.857-5.151z" fill="#2F2C2C"/><ellipse rx="2.639" ry="1.793" transform="matrix(-0.851191 0.524856 0.524856 0.851191 331.545 109.47)" fill="#F8F6F3"/><path d="M361.887 109.466l.714.092a6.233 6.233 0 015.438 6.182 5.195 5.195 0 01-5.857 5.152l-.714-.092a6.233 6.233 0 01-5.437-6.182 5.194 5.194 0 015.856-5.152z" fill="#2F2C2C"/><ellipse rx="2.639" ry="1.793" transform="matrix(-0.851191 0.524856 0.524856 0.851191 360.232 113.472)" fill="#F8F6F3"/><path d="M380.173 86.667l-7.724-1.103c-2.846-.407-3.879-3.982-1.689-5.844l6.962-5.917a10.672 10.672 0 018.336-2.445l8.755 1.178a10.675 10.675 0 019.251 10.579v26.302a18.66 18.66 0 01-6.247 13.932l-3.315 2.954c-2.58 2.3-6.666.468-6.666-2.988V95.503a8.925 8.925 0 00-7.663-8.836z" fill="#723110"/><path d="M344.934 64.63l-7.626-.954a6.489 6.489 0 00-4.732 1.273l-11.887 9.035c-1.083.822-.734 2.532.584 2.865l8.97 2.264a4.869 4.869 0 004.214-.904l11.687-9.256c1.692-1.34.932-4.056-1.21-4.323z" fill="#593B1F"/><path d="M340.397 135.309v-.902a2.79 2.79 0 013.148-2.767l3.878.502a3.11 3.11 0 012.711 3.084v1.394a5.833 5.833 0 01-2.1 4.483 3.775 3.775 0 01-5.202-.35l-.554-.606a7.162 7.162 0 01-1.881-4.838z" fill="#C90A0A"/><path d="M336.906 121.767l16.803 2.323a8.874 8.874 0 017.659 8.791c0 4.124-3.685 7.272-7.758 6.628l-1.598-.253a8.97 8.97 0 01-6.939-5.557.434.434 0 00-.801-.013l-.317.727a4.832 4.832 0 01-5.141 2.847l-2.053-.305a8.696 8.696 0 01-7.416-8.601c0-4.035 3.564-7.14 7.561-6.587z" fill="#F8E6B9"/><path d="M338.018 125.175v-1.996a3.335 3.335 0 013.761-3.308l6.09.783a4.004 4.004 0 013.492 3.97v1.823a2.001 2.001 0 01-1.98 2.001l-1.356.015-1.262 2.708c-.247.53-.81.838-1.39.759l-1.218-.167a2 2 0 01-1.577-1.214l-1.224-2.944-1.853-.497a2.002 2.002 0 01-1.483-1.933z" fill="#2F2C2C"/><path d="M341.921 121.063l2.733.363c.784.105 1.37.773 1.37 1.564a2.103 2.103 0 01-2.381 2.085l-3.109-.413a1.362 1.362 0 01-1.182-1.35 2.27 2.27 0 012.569-2.249z" fill="#656365"/><path d="M346.957 64.869l-6.169-1.049c-4.25-.722-8.602.46-11.902 3.233l-8.679 7.294a1.622 1.622 0 00-.097 2.397l.449.443a4.87 4.87 0 002.844 1.37l9.868 1.178a9.34 9.34 0 007.139-2.143l8.143-6.888c2.166-1.832 1.201-5.36-1.596-5.835z" fill="#723110"/><path d="M372.042 93.121l-46.249-6.423" stroke="#F98E4D" stroke-width="3.245" stroke-linecap="round" stroke-linejoin="round"/><path d="M280.636 224.48v-29.923c0-1.369-1.591-2.123-2.65-1.256l-9.546 7.811a15.412 15.412 0 00-5.654 11.931v22.225c0 3.396 3.51 5.656 6.602 4.251l2.211-1.005a15.416 15.416 0 009.037-14.034z" fill="#723110"/><path d="M277.983 201.883l6.838-5.888a36.506 36.506 0 0128.847-8.497l29.48 4.094a14.605 14.605 0 0112.596 14.466v37.517a17.85 17.85 0 01-6.203 13.526l-16.913 14.564a17.848 17.848 0 01-14.062 4.16l-29.402-4.013c-12.059-1.646-21.049-11.947-21.049-24.118v-24.292a28.399 28.399 0 019.868-21.519z" fill="#C2541C"/><path d="M327.774 196.113c.332-1.798 7.842-17.941 0-15.749" stroke="#723110" stroke-width="8.006" stroke-linecap="round" stroke-linejoin="round"/><path d="M274.881 204.554l11.607-9.995a31.643 31.643 0 0125.001-7.364l31.807 4.417c4.841.673 6.628 6.74 2.924 9.93l-13.765 11.854a17.037 17.037 0 00-5.921 12.911v34.764c0 8.373-7.398 14.814-15.691 13.663l-25.934-3.602c-9.627-1.337-16.794-9.569-16.794-19.288V219.31c0-5.67 2.471-11.057 6.766-14.756z" fill="#F97F36"/><path d="M281.201 232.464l.714.092a6.233 6.233 0 015.437 6.182 5.193 5.193 0 01-5.856 5.151l-.714-.092a6.233 6.233 0 01-5.438-6.182 5.194 5.194 0 015.857-5.151z" fill="#2F2C2C"/><ellipse rx="2.639" ry="1.793" transform="matrix(-0.851191 0.524856 0.524856 0.851191 279.545 236.47)" fill="#F8F6F3"/><path d="M309.887 236.466l.714.092a6.233 6.233 0 015.438 6.182 5.195 5.195 0 01-5.857 5.152l-.714-.092a6.233 6.233 0 01-5.437-6.182 5.194 5.194 0 015.856-5.152z" fill="#2F2C2C"/><ellipse rx="2.639" ry="1.793" transform="matrix(-0.851191 0.524856 0.524856 0.851191 308.232 240.472)" fill="#F8F6F3"/><path d="M328.173 213.667l-7.724-1.103c-2.846-.407-3.879-3.982-1.689-5.844l6.962-5.917a10.677 10.677 0 018.336-2.446l8.755 1.179a10.675 10.675 0 019.251 10.578v26.303a18.66 18.66 0 01-6.247 13.932l-3.315 2.954c-2.58 2.3-6.666.468-6.666-2.988v-27.812a8.925 8.925 0 00-7.663-8.836z" fill="#723110"/><path d="M292.934 191.63l-7.626-.954a6.493 6.493 0 00-4.732 1.273l-11.887 9.034c-1.083.823-.734 2.533.584 2.866l8.97 2.264a4.866 4.866 0 004.214-.904l11.687-9.256c1.692-1.34.932-4.056-1.21-4.323z" fill="#593B1F"/><path d="M288.397 262.309v-.902a2.79 2.79 0 013.148-2.767l3.878.502a3.11 3.11 0 012.711 3.084v1.394a5.833 5.833 0 01-2.1 4.483 3.775 3.775 0 01-5.202-.35l-.554-.606a7.162 7.162 0 01-1.881-4.838z" fill="#C90A0A"/><path d="M284.906 248.767l16.803 2.323a8.874 8.874 0 017.659 8.791c0 4.124-3.685 7.272-7.758 6.628l-1.598-.253a8.97 8.97 0 01-6.939-5.557.434.434 0 00-.801-.013l-.317.727a4.832 4.832 0 01-5.141 2.847l-2.053-.305a8.696 8.696 0 01-7.416-8.601c0-4.035 3.564-7.14 7.561-6.587z" fill="#F8E6B9"/><path d="M286.018 252.175v-1.996a3.335 3.335 0 013.761-3.308l6.09.783a4.004 4.004 0 013.492 3.97v1.823a2.001 2.001 0 01-1.98 2.001l-1.356.015-1.262 2.708c-.247.53-.81.838-1.39.759l-1.218-.167a2 2 0 01-1.577-1.214l-1.224-2.944-1.853-.497a2.002 2.002 0 01-1.483-1.933z" fill="#2F2C2C"/><path d="M289.921 248.063l2.733.363c.784.105 1.37.773 1.37 1.564a2.103 2.103 0 01-2.381 2.085l-3.109-.413a1.362 1.362 0 01-1.182-1.35 2.27 2.27 0 012.569-2.249z" fill="#656365"/><path d="M294.957 191.869l-6.169-1.049c-4.25-.722-8.602.46-11.902 3.233l-8.679 7.294a1.622 1.622 0 00-.097 2.397l.449.443c.77.76 1.77 1.242 2.844 1.37l9.868 1.178a9.341 9.341 0 007.139-2.143l8.143-6.888c2.166-1.832 1.201-5.36-1.596-5.835z" fill="#723110"/><path d="M320.042 220.121l-46.249-6.423" stroke="#F98E4D" stroke-width="3.245" stroke-linecap="round" stroke-linejoin="round"/><path d="M202.636 74.48V44.556c0-1.369-1.591-2.123-2.65-1.256l-9.546 7.81a15.415 15.415 0 00-5.654 11.932v22.224c0 3.397 3.51 5.657 6.602 4.252l2.211-1.005a15.415 15.415 0 009.037-14.034z" fill="#282121"/><path d="M199.983 51.883l6.838-5.888a36.51 36.51 0 0128.847-8.497l29.48 4.094a14.605 14.605 0 0112.596 14.466v37.517a17.85 17.85 0 01-6.203 13.526l-16.913 14.564a17.848 17.848 0 01-14.062 4.16l-29.402-4.013c-12.059-1.646-21.049-11.947-21.049-24.118V73.402a28.398 28.398 0 019.868-21.519z" fill="#2F2C2C"/><path d="M249.774 46.113c.332-1.798 7.842-17.94 0-15.749" stroke="#282121" stroke-width="8.006" stroke-linecap="round" stroke-linejoin="round"/><path d="M196.881 54.553l11.607-9.994a31.643 31.643 0 0125.001-7.364l31.807 4.417c4.841.673 6.628 6.74 2.924 9.93l-13.765 11.854a17.04 17.04 0 00-5.921 12.911v34.764c0 8.373-7.398 14.814-15.691 13.663l-25.934-3.602c-9.627-1.337-16.794-9.569-16.794-19.288V69.31c0-5.67 2.471-11.057 6.766-14.757z" fill="#676161"/><path d="M203.201 82.464l.714.092a6.233 6.233 0 015.437 6.182 5.193 5.193 0 01-5.856 5.151l-.714-.092a6.232 6.232 0 01-5.438-6.182 5.194 5.194 0 015.857-5.151z" fill="#2F2C2C"/><ellipse rx="2.639" ry="1.793" transform="matrix(-0.851191 0.524856 0.524856 0.851191 201.545 86.4696)" fill="#F8F6F3"/><path d="M231.887 86.466l.714.092a6.233 6.233 0 015.438 6.182 5.194 5.194 0 01-5.857 5.151l-.714-.091a6.233 6.233 0 01-5.437-6.182 5.193 5.193 0 015.856-5.152z" fill="#2F2C2C"/><ellipse rx="2.639" ry="1.793" transform="matrix(-0.851191 0.524856 0.524856 0.851191 230.232 90.472)" fill="#F8F6F3"/><path d="M250.173 63.667l-7.724-1.103c-2.846-.407-3.879-3.982-1.689-5.844l6.962-5.917a10.672 10.672 0 018.336-2.445l8.755 1.178a10.675 10.675 0 019.251 10.578v26.303a18.661 18.661 0 01-6.247 13.932l-3.315 2.954c-2.58 2.3-6.666.468-6.666-2.988V72.503a8.925 8.925 0 00-7.663-8.836z" fill="#282121"/><path d="M214.934 41.63l-7.626-.954a6.489 6.489 0 00-4.732 1.273l-11.887 9.035c-1.083.822-.734 2.532.584 2.865l8.97 2.264a4.869 4.869 0 004.214-.904l11.687-9.256c1.692-1.34.932-4.056-1.21-4.323z" fill="#593B1F"/><path d="M210.397 112.309v-.902a2.79 2.79 0 013.148-2.767l3.878.502a3.11 3.11 0 012.711 3.084v1.394a5.833 5.833 0 01-2.1 4.483 3.775 3.775 0 01-5.202-.35l-.554-.606a7.162 7.162 0 01-1.881-4.838z" fill="#C90A0A"/><path d="M206.906 98.767l16.803 2.323a8.874 8.874 0 017.659 8.791c0 4.124-3.685 7.272-7.758 6.628l-1.598-.253a8.97 8.97 0 01-6.939-5.557.434.434 0 00-.801-.013l-.317.727a4.832 4.832 0 01-5.141 2.847l-2.053-.305a8.696 8.696 0 01-7.416-8.601c0-4.035 3.564-7.14 7.561-6.587z" fill="#F8E6B9"/><path d="M208.018 102.175v-1.996a3.336 3.336 0 013.761-3.308l6.09.783a4.003 4.003 0 013.492 3.97v1.823a2.001 2.001 0 01-1.98 2.001l-1.356.015-1.262 2.708c-.247.53-.81.838-1.39.759l-1.218-.167a2 2 0 01-1.577-1.214l-1.224-2.944-1.853-.497a2.002 2.002 0 01-1.483-1.933z" fill="#2F2C2C"/><path d="M211.921 98.063l2.733.363c.784.105 1.37.773 1.37 1.564a2.103 2.103 0 01-2.381 2.085l-3.109-.413a1.362 1.362 0 01-1.182-1.35 2.27 2.27 0 012.569-2.249z" fill="#656365"/><path d="M216.957 41.869l-6.169-1.049c-4.25-.722-8.602.46-11.902 3.233l-8.679 7.294a1.622 1.622 0 00-.097 2.397l.449.443a4.87 4.87 0 002.844 1.37l9.868 1.178a9.34 9.34 0 007.139-2.143l8.143-6.888c2.166-1.832 1.201-5.36-1.596-5.835z" fill="#282121"/><path d="M242.042 70.121l-46.249-6.423" stroke="#6E6969" stroke-width="3.245" stroke-linecap="round" stroke-linejoin="round"/><path d="M107.636 202.48v-29.923c0-1.369-1.591-2.123-2.65-1.256l-9.546 7.811a15.414 15.414 0 00-5.654 11.931v22.225c0 3.396 3.51 5.656 6.602 4.251l2.211-1.005a15.416 15.416 0 009.037-14.034z" fill="#282121"/><path d="M104.983 179.883l6.838-5.888a36.506 36.506 0 0128.847-8.497l29.48 4.094a14.605 14.605 0 0112.596 14.466v37.517a17.85 17.85 0 01-6.203 13.526l-16.913 14.564a17.848 17.848 0 01-14.062 4.16l-29.402-4.013c-12.059-1.646-21.049-11.947-21.049-24.118v-24.292a28.398 28.398 0 019.868-21.519z" fill="#2F2C2C"/><path d="M154.774 174.113c.332-1.798 7.842-17.941 0-15.749" stroke="#282121" stroke-width="8.006" stroke-linecap="round" stroke-linejoin="round"/><path d="M101.881 182.554l11.607-9.995a31.643 31.643 0 0125.001-7.364l31.807 4.417c4.841.673 6.628 6.74 2.924 9.93l-13.765 11.854a17.037 17.037 0 00-5.921 12.911v34.764c0 8.373-7.398 14.814-15.691 13.663l-25.934-3.602c-9.627-1.337-16.794-9.569-16.794-19.288V197.31c0-5.67 2.47-11.057 6.766-14.756z" fill="#676161"/><path d="M108.201 210.464l.714.092a6.233 6.233 0 015.437 6.182 5.193 5.193 0 01-5.856 5.151l-.714-.092a6.233 6.233 0 01-5.438-6.182 5.194 5.194 0 015.857-5.151z" fill="#2F2C2C"/><ellipse rx="2.639" ry="1.793" transform="matrix(-0.851191 0.524856 0.524856 0.851191 106.545 214.47)" fill="#F8F6F3"/><path d="M136.887 214.466l.714.092a6.233 6.233 0 015.438 6.182 5.195 5.195 0 01-5.857 5.152l-.714-.092a6.233 6.233 0 01-5.437-6.182 5.194 5.194 0 015.856-5.152z" fill="#2F2C2C"/><ellipse rx="2.639" ry="1.793" transform="matrix(-0.851191 0.524856 0.524856 0.851191 135.232 218.472)" fill="#F8F6F3"/><path d="M155.173 191.667l-7.724-1.103c-2.846-.407-3.879-3.982-1.689-5.844l6.962-5.917a10.677 10.677 0 018.336-2.446l8.755 1.179a10.675 10.675 0 019.251 10.578v26.303a18.66 18.66 0 01-6.247 13.932l-3.315 2.954c-2.58 2.3-6.666.468-6.666-2.988v-27.812a8.925 8.925 0 00-7.663-8.836z" fill="#282121"/><path d="M119.934 169.63l-7.626-.954a6.493 6.493 0 00-4.732 1.273l-11.887 9.034c-1.083.823-.734 2.533.584 2.866l8.97 2.264a4.866 4.866 0 004.214-.904l11.687-9.256c1.692-1.34.932-4.056-1.21-4.323z" fill="#593B1F"/><path d="M115.397 240.309v-.902a2.79 2.79 0 013.148-2.767l3.878.502a3.11 3.11 0 012.711 3.084v1.394a5.833 5.833 0 01-2.1 4.483 3.775 3.775 0 01-5.202-.35l-.554-.606a7.162 7.162 0 01-1.881-4.838z" fill="#C90A0A"/><path d="M111.906 226.767l16.803 2.323a8.874 8.874 0 017.659 8.791c0 4.124-3.685 7.272-7.758 6.628l-1.598-.253a8.97 8.97 0 01-6.939-5.557.434.434 0 00-.801-.013l-.317.727a4.832 4.832 0 01-5.141 2.847l-2.053-.305a8.696 8.696 0 01-7.416-8.601c0-4.035 3.564-7.14 7.561-6.587z" fill="#F8E6B9"/><path d="M113.018 230.175v-1.996a3.335 3.335 0 013.761-3.308l6.09.783a4.004 4.004 0 013.492 3.97v1.823a2.001 2.001 0 01-1.98 2.001l-1.356.015-1.262 2.708c-.247.53-.81.838-1.39.759l-1.218-.167a2 2 0 01-1.577-1.214l-1.224-2.944-1.853-.497a2.002 2.002 0 01-1.483-1.933z" fill="#2F2C2C"/><path d="M116.921 226.063l2.733.363c.784.105 1.37.773 1.37 1.564a2.103 2.103 0 01-2.381 2.085l-3.109-.413a1.362 1.362 0 01-1.182-1.35 2.27 2.27 0 012.569-2.249z" fill="#656365"/><path d="M121.957 169.869l-6.169-1.049c-4.25-.722-8.602.46-11.902 3.233l-8.68 7.294a1.623 1.623 0 00-.096 2.397l.45.443c.769.76 1.77 1.242 2.843 1.37l9.868 1.178a9.341 9.341 0 007.139-2.143l8.143-6.888c2.166-1.832 1.201-5.36-1.596-5.835z" fill="#282121"/><path d="M147.042 198.121l-46.249-6.423" stroke="#6E6969" stroke-width="3.245" stroke-linecap="round" stroke-linejoin="round"/></svg>