<?xml version="1.0" encoding="utf-8"?>
<!-- Generator: Adobe Illustrator 18.0.0, SVG Export Plug-In . SVG Version: 6.00 Build 0)  -->
<!DOCTYPE svg PUBLIC "-//W3C//DTD SVG 1.1//EN" "http://www.w3.org/Graphics/SVG/1.1/DTD/svg11.dtd">
<svg version="1.1" id="Layer_1" xmlns="http://www.w3.org/2000/svg" xmlns:xlink="http://www.w3.org/1999/xlink" x="0px" y="0px"
	 viewBox="0 0 380 380" enable-background="new 0 0 380 380" xml:space="preserve">
<g>
	<defs>
		<rect id="SVGID_1_" x="454.6" y="397.7" width="73.6" height="73.7"/>
	</defs>
	<clipPath id="SVGID_2_">
		<use xlink:href="#SVGID_1_"  overflow="visible"/>
	</clipPath>
	<g clip-path="url(#SVGID_2_)">
		<line fill="none" stroke="#00A29D" stroke-width="5" stroke-miterlimit="10" x1="337" y1="627.7" x2="627" y2="337.7"/>
	</g>
</g>
<g>
	<defs>
		<rect id="SVGID_3_" x="273.9" y="397.7" width="73.7" height="73.6"/>
	</defs>
	<clipPath id="SVGID_4_">
		<use xlink:href="#SVGID_3_"  overflow="visible"/>
	</clipPath>
	<g clip-path="url(#SVGID_4_)">
		<line fill="none" stroke="#00A29D" stroke-width="5" stroke-miterlimit="10" x1="358.6" y1="300" x2="358.6" y2="590"/>
		<line fill="none" stroke="#00A29D" stroke-width="5" stroke-miterlimit="10" x1="503.9" y1="589" x2="213.9" y2="299"/>
	</g>
</g>
<g>
	<defs>
		<rect id="SVGID_5_" x="93.3" y="397.7" width="73.6" height="73.7"/>
	</defs>
	<clipPath id="SVGID_6_">
		<use xlink:href="#SVGID_5_"  overflow="visible"/>
	</clipPath>
	<g clip-path="url(#SVGID_6_)">
		<line fill="none" stroke="#00A29D" stroke-width="5" stroke-miterlimit="10" x1="119.7" y1="337.3" x2="119.7" y2="627.3"/>
	</g>
</g>
<g>
	<defs>
		<rect id="SVGID_7_" x="2.6" y="397.7" width="73.6" height="73.7"/>
	</defs>
	<clipPath id="SVGID_8_">
		<use xlink:href="#SVGID_7_"  overflow="visible"/>
	</clipPath>
	<g clip-path="url(#SVGID_8_)">
		<line fill="none" stroke="#00A29D" stroke-width="5" stroke-miterlimit="10" x1="40.5" y1="337.3" x2="40.5" y2="627.3"/>
		<line fill="none" stroke="#00A29D" stroke-width="5" stroke-miterlimit="10" x1="-115" y1="627.7" x2="175" y2="337.7"/>
	</g>
</g>
<g>
	<defs>
		<rect id="SVGID_9_" x="364.9" y="397.7" width="73.6" height="73.7"/>
	</defs>
	<clipPath id="SVGID_10_">
		<use xlink:href="#SVGID_9_"  overflow="visible"/>
	</clipPath>
	<g clip-path="url(#SVGID_10_)">
		<line fill="none" stroke="#00A29D" stroke-width="5" stroke-miterlimit="10" x1="247.2" y1="627.7" x2="537.2" y2="337.7"/>
	</g>
</g>
<g>
	<defs>
		<rect id="SVGID_11_" x="184.1" y="397.7" width="73.6" height="73.7"/>
	</defs>
	<clipPath id="SVGID_12_">
		<use xlink:href="#SVGID_11_"  overflow="visible"/>
	</clipPath>
	<g clip-path="url(#SVGID_12_)">
		<line fill="none" stroke="#00A29D" stroke-width="5" stroke-miterlimit="10" x1="222" y1="337.3" x2="222" y2="627.3"/>
		<line fill="none" stroke="#00A29D" stroke-width="5" stroke-miterlimit="10" x1="66.5" y1="627.7" x2="356.5" y2="337.7"/>
	</g>
</g>
<g>
	<line fill="none" stroke="#00A29D" stroke-width="5" stroke-miterlimit="10" x1="189" y1="44" x2="189" y2="334"/>
	<line fill="none" stroke="#00A29D" stroke-width="5" stroke-miterlimit="10" x1="334" y1="189" x2="44" y2="189"/>
	<line fill="none" stroke="#00A29D" stroke-width="5" stroke-miterlimit="10" x1="45" y1="334.3" x2="335" y2="44.3"/>
	<circle fill="none" stroke="#00A29D" stroke-width="5" stroke-miterlimit="10" cx="189" cy="188" r="48"/>
</g>
<g>
	<g>
		<rect x="44.9" y="44.9" fill="none" stroke="#222831" stroke-width="5" stroke-miterlimit="10" width="290.2" height="290.2"/>
	</g>
</g>
<g>
	<g>
		<rect x="163" y="104.7" fill="#FFFFFF" width="72.9" height="73"/>
		<g>
			<path fill="#222831" d="M233.4,107.2v68h-67.9v-68H233.4 M238.4,102.2h-77.9v78h77.9V102.2L238.4,102.2z"/>
		</g>
	</g>
	<g>
		<path fill="#00A29D" d="M194.2,152.6c0-1.8,0.1-3.3,0.3-4.7c0.2-1.3,0.6-2.5,1.1-3.6c0.5-1.1,1.1-2.1,1.9-3.1c0.8-1,1.7-2,2.9-3.1
			c0.9-0.8,1.7-1.6,2.4-2.4c0.7-0.7,1.4-1.5,2-2.3c0.6-0.8,1-1.6,1.3-2.5c0.3-0.9,0.5-1.9,0.5-2.9c0-2.4-0.6-4.2-1.8-5.4
			c-1.2-1.2-2.9-1.9-5.1-1.9c-0.9,0-1.8,0.1-2.6,0.4s-1.6,0.7-2.3,1.2c-0.7,0.6-1.2,1.3-1.6,2.1c-0.4,0.9-0.6,1.9-0.6,3.1h-9.2
			c0-2.4,0.5-4.4,1.3-6.2c0.8-1.8,2-3.3,3.5-4.5c1.5-1.2,3.2-2.1,5.2-2.8c2-0.6,4.1-0.9,6.4-0.9c2.5,0,4.8,0.3,6.8,1s3.7,1.6,5,2.9
			c1.4,1.3,2.4,2.8,3.1,4.6s1.1,3.9,1.1,6.1c0,1.7-0.3,3.2-0.8,4.6s-1.2,2.8-2.1,4c-0.9,1.3-1.9,2.5-3,3.6c-1.1,1.2-2.3,2.3-3.5,3.4
			c-1.4,1.3-2.3,2.6-2.8,4.1c-0.5,1.5-0.7,3.2-0.7,5.1H194.2z M193.5,164.3c0-0.7,0.1-1.4,0.3-2c0.2-0.6,0.6-1.1,1-1.6
			s1-0.8,1.6-1.1c0.6-0.3,1.4-0.4,2.2-0.4s1.6,0.1,2.2,0.4c0.6,0.3,1.2,0.6,1.6,1.1s0.8,1,1,1.6c0.2,0.6,0.4,1.3,0.4,2
			c0,1.4-0.5,2.5-1.4,3.5c-0.9,0.9-2.2,1.4-3.8,1.4s-2.9-0.5-3.8-1.4C194,166.9,193.5,165.7,193.5,164.3z"/>
	</g>
</g>
</svg>
