<?xml version="1.0" encoding="utf-8"?>
<!-- Generator: Adobe Illustrator 18.0.0, SVG Export Plug-In . SVG Version: 6.00 Build 0)  -->
<!DOCTYPE svg PUBLIC "-//W3C//DTD SVG 1.1//EN" "http://www.w3.org/Graphics/SVG/1.1/DTD/svg11.dtd">
<svg version="1.1" id="Layer_1" xmlns="http://www.w3.org/2000/svg" xmlns:xlink="http://www.w3.org/1999/xlink" x="0px" y="0px"
	 viewBox="0 0 380 380" enable-background="new 0 0 380 380" xml:space="preserve">
<g>
	<defs>
		<rect id="SVGID_1_" x="364.1" y="397.6" width="73.6" height="73.7"/>
	</defs>
	<clipPath id="SVGID_2_">
		<use xlink:href="#SVGID_1_"  overflow="visible"/>
	</clipPath>
	<g clip-path="url(#SVGID_2_)">
		<line fill="none" stroke="#222831" stroke-width="5" stroke-miterlimit="10" x1="406.9" y1="483" x2="271.8" y2="249"/>
		<line fill="none" stroke="#222831" stroke-width="5" stroke-miterlimit="10" x1="406.9" y1="249" x2="204.3" y2="366"/>
		<line fill="none" stroke="#222831" stroke-width="5" stroke-miterlimit="10" x1="474.4" y1="366" x2="271.8" y2="483"/>
		<polygon fill="none" stroke="#00A29D" stroke-width="5" stroke-miterlimit="10" points="271.8,483 204.3,366 271.8,249 406.9,249 
			474.4,366 406.9,483 		"/>
	</g>
</g>
<g>
	<defs>
		<rect id="SVGID_3_" x="274.6" y="397.6" width="73.6" height="73.7"/>
	</defs>
	<clipPath id="SVGID_4_">
		<use xlink:href="#SVGID_3_"  overflow="visible"/>
	</clipPath>
	<g clip-path="url(#SVGID_4_)">
		<line fill="none" stroke="#222831" stroke-width="5" stroke-miterlimit="10" x1="317.4" y1="483" x2="182.3" y2="249"/>
		<line fill="none" stroke="#222831" stroke-width="5" stroke-miterlimit="10" x1="317.4" y1="249" x2="114.8" y2="366"/>
		<line fill="none" stroke="#222831" stroke-width="5" stroke-miterlimit="10" x1="384.9" y1="366" x2="182.3" y2="483"/>
		<polygon fill="none" stroke="#00A29D" stroke-width="5" stroke-miterlimit="10" points="137.8,483 70.3,366 137.8,249 272.9,249 
			340.4,366 272.9,483 		"/>
	</g>
</g>
<g>
	<defs>
		<rect id="SVGID_5_" x="94.1" y="397.6" width="73.6" height="73.7"/>
	</defs>
	<clipPath id="SVGID_6_">
		<use xlink:href="#SVGID_5_"  overflow="visible"/>
	</clipPath>
	<g clip-path="url(#SVGID_6_)">
		<line fill="none" stroke="#00A29D" stroke-width="5" stroke-miterlimit="10" x1="136.9" y1="483" x2="1.8" y2="249"/>
		<line fill="none" stroke="#222831" stroke-width="5" stroke-miterlimit="10" x1="136.9" y1="249" x2="-65.7" y2="366"/>
		<line fill="none" stroke="#00A29D" stroke-width="5" stroke-miterlimit="10" x1="204.4" y1="366" x2="1.8" y2="483"/>
		<polygon fill="none" stroke="#00A29D" stroke-width="5" stroke-miterlimit="10" points="1.8,483 -65.7,366 1.8,249 136.9,249 
			204.4,366 136.9,483 		"/>
	</g>
</g>
<g>
	<defs>
		<rect id="SVGID_7_" x="454.8" y="397.6" width="73.6" height="73.7"/>
	</defs>
	<clipPath id="SVGID_8_">
		<use xlink:href="#SVGID_7_"  overflow="visible"/>
	</clipPath>
	<g clip-path="url(#SVGID_8_)">
		<line fill="none" stroke="#00A29D" stroke-width="5" stroke-miterlimit="10" x1="497.5" y1="483" x2="362.5" y2="249"/>
		<line fill="none" stroke="#222831" stroke-width="5" stroke-miterlimit="10" x1="497.5" y1="249" x2="295" y2="366"/>
		<line fill="none" stroke="#222831" stroke-width="5" stroke-miterlimit="10" x1="565" y1="366" x2="362.5" y2="483"/>
		<polygon fill="none" stroke="#00A29D" stroke-width="5" stroke-miterlimit="10" points="362.5,483 295,366 362.5,249 497.5,249 
			565,366 497.5,483 		"/>
	</g>
</g>
<g>
	<defs>
		<rect id="SVGID_9_" x="184.8" y="397.6" width="73.6" height="73.7"/>
	</defs>
	<clipPath id="SVGID_10_">
		<use xlink:href="#SVGID_9_"  overflow="visible"/>
	</clipPath>
	<g clip-path="url(#SVGID_10_)">
		<line fill="none" stroke="#222831" stroke-width="5" stroke-miterlimit="10" x1="215.6" y1="483" x2="350.7" y2="249"/>
		<line fill="none" stroke="#222831" stroke-width="5" stroke-miterlimit="10" x1="215.6" y1="249" x2="418.2" y2="366"/>
		<line fill="none" stroke="#222831" stroke-width="5" stroke-miterlimit="10" x1="148.1" y1="366" x2="350.7" y2="483"/>
		<polygon fill="none" stroke="#00A29D" stroke-width="5" stroke-miterlimit="10" points="350.7,483 418.2,366 350.7,249 215.6,249 
			148.1,366 215.6,483 		"/>
	</g>
</g>
<g>
	<defs>
		<rect id="SVGID_11_" x="3.4" y="397.6" width="73.6" height="73.7"/>
	</defs>
	<clipPath id="SVGID_12_">
		<use xlink:href="#SVGID_11_"  overflow="visible"/>
	</clipPath>
	<g clip-path="url(#SVGID_12_)">
		<line fill="none" stroke="#00A29D" stroke-width="5" stroke-miterlimit="10" x1="46.2" y1="483" x2="-88.9" y2="249"/>
		<line fill="none" stroke="#222831" stroke-width="5" stroke-miterlimit="10" x1="46.2" y1="249" x2="-156.4" y2="366"/>
		<line fill="none" stroke="#00A29D" stroke-width="5" stroke-miterlimit="10" x1="113.7" y1="366" x2="-88.9" y2="483"/>
		<polygon fill="none" stroke="#222831" stroke-width="5" stroke-miterlimit="10" points="-88.9,483 -156.4,366 -88.9,249 46.2,249 
			113.7,366 46.2,483 		"/>
	</g>
</g>
<g>
	<line fill="none" stroke="#222831" stroke-width="5" stroke-miterlimit="10" x1="257.5" y1="307" x2="122.5" y2="73"/>
	<line fill="none" stroke="#222831" stroke-width="5" stroke-miterlimit="10" x1="257.5" y1="73" x2="55" y2="190"/>
	<line fill="none" stroke="#222831" stroke-width="5" stroke-miterlimit="10" x1="325" y1="190" x2="122.5" y2="307"/>
	<polygon fill="none" stroke="#00A29D" stroke-width="5" stroke-miterlimit="10" points="122.5,307 55,190 122.5,73 257.5,73 
		325,190 257.5,307 	"/>
</g>
<g>
	<g>
		<rect x="44.9" y="44.9" fill="none" stroke="#222831" stroke-width="5" stroke-miterlimit="10" width="290.2" height="290.2"/>
	</g>
</g>
<g>
	<g>
		<rect x="215.1" y="222" fill="#FFFFFF" width="72.9" height="73"/>
		<g>
			<path fill="#222831" d="M285.5,224.5v68h-67.9v-68H285.5 M290.5,219.5h-77.9v78h77.9V219.5L290.5,219.5z"/>
		</g>
	</g>
	<g>
		<path fill="#00A29D" d="M246.3,269.9c0-1.8,0.1-3.3,0.3-4.7c0.2-1.3,0.6-2.5,1.1-3.6c0.5-1.1,1.1-2.1,1.9-3.1c0.8-1,1.7-2,2.9-3.1
			c0.9-0.8,1.7-1.6,2.4-2.4c0.7-0.7,1.4-1.5,2-2.3c0.6-0.8,1-1.6,1.3-2.5c0.3-0.9,0.5-1.9,0.5-2.9c0-2.4-0.6-4.2-1.8-5.4
			c-1.2-1.2-2.9-1.9-5.1-1.9c-0.9,0-1.8,0.1-2.6,0.4s-1.6,0.7-2.3,1.2c-0.7,0.6-1.2,1.3-1.6,2.1c-0.4,0.9-0.6,1.9-0.6,3.1h-9.2
			c0-2.4,0.5-4.4,1.3-6.2c0.8-1.8,2-3.3,3.5-4.5c1.5-1.2,3.2-2.1,5.2-2.8c2-0.6,4.1-0.9,6.4-0.9c2.5,0,4.8,0.3,6.8,1s3.7,1.6,5,2.9
			c1.4,1.3,2.4,2.8,3.1,4.6s1.1,3.9,1.1,6.1c0,1.7-0.3,3.2-0.8,4.6s-1.2,2.8-2.1,4c-0.9,1.3-1.9,2.5-3,3.6c-1.1,1.2-2.3,2.3-3.5,3.4
			c-1.4,1.3-2.3,2.6-2.8,4.1c-0.5,1.5-0.7,3.2-0.7,5.1H246.3z M245.7,281.7c0-0.7,0.1-1.4,0.3-2c0.2-0.6,0.6-1.1,1-1.6
			s1-0.8,1.6-1.1c0.6-0.3,1.4-0.4,2.2-0.4s1.6,0.1,2.2,0.4c0.6,0.3,1.2,0.6,1.6,1.1s0.8,1,1,1.6c0.2,0.6,0.4,1.3,0.4,2
			c0,1.4-0.5,2.5-1.4,3.5c-0.9,0.9-2.2,1.4-3.8,1.4s-2.9-0.5-3.8-1.4C246.1,284.2,245.7,283,245.7,281.7z"/>
	</g>
</g>
</svg>
